<svg width="1143" height="257" viewBox="0 0 1143 257" fill="none" xmlns="http://www.w3.org/2000/svg">
<g clip-path="url(#clip0)">
<path d="M153.7 234.7C184.3 231.4 211.2 199.7 228.2 174L208.1 161.2C188 191.5 165.8 211.1 149.2 211C139.3 210.9 129.4 199.2 124.2 192.2C100.5 160 87.9002 107 91.8002 87.2001L71.1002 74.1001C58.0002 104.8 82.0002 174.9 105.2 206.4C117 222.5 133.8 236.8 153.7 234.7Z" fill="url(#paint0_linear)"/>
<path d="M149.3 211.1C139.4 211 129.5 199.3 124.3 192.3C100.6 160.1 88.0002 107.1 91.9002 87.3001L71.1002 74.1001C58.0002 104.8 82.0002 174.9 105.2 206.4C117.1 222.5 133.8 236.8 153.8 234.7L149.3 211.1Z" fill="url(#paint1_linear)"/>
<path d="M105 0.500019C80.3004 2.90002 54.6004 14.9 34.8004 32.2C-2.79961 65.1 -10.6996 107.9 14.8004 141.3C45.9004 182.1 150.8 172.7 172.1 151.3C183.7 139.7 183.4 96 183.3 91C182.7 47.9 171.6 27.9 162.4 18.7C147.2 3.50002 126.5 -1.69998 105 0.500019ZM105 24.4C119.4 22.8 135.4 25.4 145.6 35.6C163.1 53.1 161.8 119 154.7 135.1C137.9 147.3 54.4004 154.1 33.7004 127C27.0004 118.1 8.50039 86.8 50.5004 50.1C68.5004 34.3 87.9004 26.3 105 24.4Z" fill="url(#paint2_linear)"/>
<path d="M105 24.4C119.4 22.8 135.4 25.4 145.6 35.6C163.1 53.1 161.8 119 154.7 135.1L172.1 151.5C183.7 139.9 183.4 96.2 183.3 91.2C182.7 48.1 171.6 28.1 162.4 18.9C147.2 3.50002 126.5 -1.69998 105 0.500022V24.4Z" fill="url(#paint3_linear)"/>
<path d="M77.5996 88.8L91.8996 87.2C92.1996 85.8 92.4996 84.5 92.9996 83.4C94.8996 79.4 107.1 70.4 133.4 61.9C140.5 59.6 147.9 57.6 155.4 55.8C163.2 54 171.1 52.4 178.9 51.3C188.9 49.8 198.6 48.9 207.4 48.7C234.1 48.1 244.2 53.8 246 57.3C249.9 65.1 243.4 98.9 221.2 139.7C217 147.3 212.7 154.5 208.3 161.2L216.7 170.9L228.4 173.9C234.2 165.1 238.9 157 242.2 151C252.8 131.5 261.3 110.9 266.2 93.1C271.9 72.2 272.3 56.5 267.3 46.6C259.7 31.5 239.4 24.1 207 24.9C195.6 25.2 183 26.5 170.2 28.6C161.6 30 152.9 31.9 144.3 34.1C138.1 35.7 132.1 37.4 126.2 39.3C95.2996 49.3 76.7996 61 71.0996 74.1L77.5996 88.8Z" fill="url(#paint4_linear)"/>
<path d="M1092.1 67.4C1093.4 64.2 1095.3 61.4 1097.6 59.1C1099.9 56.7 1102.7 54.9 1105.9 53.6C1109.1 52.3 1112.6 51.6 1116.4 51.6C1120.2 51.6 1123.7 52.3 1126.9 53.6C1130.1 54.9 1132.9 56.8 1135.2 59.1C1137.5 61.5 1139.4 64.2 1140.7 67.4C1142 70.6 1142.7 74.1 1142.7 77.9C1142.7 81.7 1142 85.2 1140.7 88.4C1139.4 91.6 1137.5 94.4 1135.2 96.7C1132.9 99.1 1130.1 100.9 1126.9 102.2C1123.7 103.5 1120.2 104.2 1116.4 104.2C1112.6 104.2 1109.1 103.5 1105.9 102.2C1102.7 100.9 1099.9 99 1097.6 96.7C1095.3 94.3 1093.4 91.6 1092.1 88.4C1090.8 85.2 1090.1 81.7 1090.1 77.9C1090.1 74.1 1090.7 70.6 1092.1 67.4ZM1135 69.9C1134 67.4 1132.7 65.3 1130.9 63.6C1129.1 61.8 1127 60.4 1124.6 59.5C1122.2 58.6 1119.4 58 1116.5 58C1113.6 58 1110.9 58.5 1108.5 59.5C1106 60.5 1103.9 61.9 1102.2 63.6C1100.4 65.4 1099.1 67.5 1098.1 69.9C1097.1 72.4 1096.6 75 1096.6 77.9C1096.6 80.8 1097.1 83.5 1098.1 85.9C1099.1 88.4 1100.4 90.5 1102.2 92.2C1104 94 1106.1 95.3 1108.5 96.3C1111 97.3 1113.6 97.8 1116.5 97.8C1119.5 97.8 1122.2 97.3 1124.6 96.3C1127 95.3 1129.2 94 1130.9 92.2C1132.7 90.4 1134 88.3 1135 85.9C1136 83.4 1136.5 80.8 1136.5 77.9C1136.4 75 1136 72.3 1135 69.9ZM1107.2 64.2H1118.5C1119.9 64.2 1121.1 64.4 1122.2 64.9C1123.3 65.3 1124.3 65.9 1125.1 66.7C1125.9 67.5 1126.5 68.4 1127 69.5C1127.4 70.6 1127.7 71.7 1127.7 72.9C1127.7 74.9 1127.2 76.7 1126.1 78.1C1125 79.6 1123.6 80.6 1121.7 81.1L1127.7 91H1121.6L1116.1 81.6L1116.3 81.5H1112.3V91H1107.2V64.2ZM1121.1 70.3C1120.4 69.6 1119.4 69.2 1118.3 69.2H1112.3V76.5H1118.3C1119.5 76.5 1120.4 76.2 1121.1 75.5C1121.8 74.8 1122.2 74 1122.2 72.8C1122.2 71.9 1121.9 71 1121.1 70.3Z" fill="#6E549E"/>
<path d="M326.9 144.7V136V106.9H312.6V98L345.5 70.2H347.9V91H378.2V106.9H347.9V133.9V141.7C347.9 151.2 352.8 155.1 361.3 155.1C366.2 155.1 370.6 153.4 373.6 151.1L382.9 164.3C377.5 168.9 368.6 172.6 357.1 172.6C338.3 172.5 326.9 163 326.9 144.7Z" fill="#6E549E"/>
<path d="M910.1 90.9H930.6V98.4C935 93.5 942.4 89.3 952.2 89.3C962.4 89.3 968.7 93.4 973.3 99.3L960.2 111.5C956.9 108.6 953.7 107 948.6 107C938.8 107 931 114.8 931 127.7V170.8H910.1V90.9Z" fill="#6E549E"/>
<path d="M977.6 197.1L987.6 183C990.7 185.2 995 187 999.8 187C1006 187 1010.7 184.9 1018 170.9L977.7 90.8999H1002.9L1030.1 147.2L1058.4 90.8999H1082.4L1035.9 178.8C1026.5 197.1 1016.5 204.2 1000.1 204.2C990.5 204.3 982.1 201.3 977.6 197.1Z" fill="#6E549E"/>
<path d="M390.1 90.9H410.6V98.4C415 93.5 422.4 89.3 432.2 89.3C442.4 89.3 448.7 93.4 453.3 99.3L440.2 111.5C436.9 108.6 433.7 107 428.6 107C418.8 107 411 114.8 411 127.7V170.8H390.1V90.9Z" fill="#6E549E"/>
<path d="M460.5 139.6V126.4V90.8999H481.6V124.3V135.9C481.6 147.8 489.4 154.2 501.6 154.2C514.9 154.2 521.9 145.9 521.9 133.1V90.8999H542.8V170.9H522.3V164.1C517 168.9 508.3 172.5 497.2 172.5C474.5 172.5 460.5 161.1 460.5 139.6Z" fill="#6E549E"/>
<path d="M554.4 131.2C554.4 107.5 573.8 89.3999 601.1 89.3999C628 89.3999 644.9 105.9 644.9 128.2C644.9 131.4 644.5 134.4 644.2 135.8H576.8C577.3 140.6 579.5 144.7 582.8 148.2C587.3 153 594.1 155.8 602.2 155.8C612.9 155.8 621.4 151.7 626.7 144L642.1 152.1C634.5 165.1 620.1 172.4 600.2 172.4C574 172.5 554.4 156.8 554.4 131.2ZM622.1 121.6C621.6 119.1 620.5 116.8 619.4 114.9C615.6 109.3 608.7 105.8 600.2 105.8C588.4 105.8 580.6 112.3 578.2 121.5H622.1V121.6Z" fill="#6E549E"/>
<path d="M655 155.8L669.5 145.3C675.3 152 681.5 155.6 688.7 155.6C694.9 155.6 698.5 152.9 698.5 149.1C698.5 144.8 694.7 142.4 682.5 138C665.4 131.6 657.6 124.3 657.6 113.2C657.6 99.7999 670.3 89.3999 688.8 89.3999C703.9 89.3999 714.6 96.3999 720 103.9L706.6 114.4C702.1 109.2 695.3 105.7 689 105.7C683.2 105.7 679.4 108.4 679.4 111.9C679.4 115.6 683.4 118.3 697 123C713.9 128.7 721.1 137 721.1 148C721.1 163.1 706.8 172.6 689.9 172.6C673.7 172.5 661.3 165.4 655 155.8Z" fill="#6E549E"/>
<path d="M742 144.7V136V106.9H727.7V98L760.6 70.2H763V91H793.3V106.9H763V133.9V141.7C763 151.2 767.9 155.1 776.4 155.1C781.3 155.1 785.7 153.4 788.7 151.1L798 164.3C792.6 168.9 783.7 172.6 772.2 172.6C753.4 172.5 742 163 742 144.7Z" fill="#6E549E"/>
<path d="M800.2 131.3C800.2 105.9 822.2 89.3 850.5 89.3C877.7 89.3 897.7 105.7 897.7 130.3C897.7 155.7 875.7 172.4 847.4 172.4C820.2 172.5 800.2 156 800.2 131.3ZM848.9 154.5C864.5 154.5 874.7 144.5 874.7 131C874.7 117.3 864.5 107.2 848.9 107.2C833.6 107.2 823.3 117.4 823.3 131C823.3 144.5 833.6 154.5 848.9 154.5Z" fill="#6E549E"/>
<path d="M311.6 224.4C311.6 210.8 321.6 202.1 334 202.1C346.1 202.1 355 211.5 355 223.2C355 236.5 344.7 245.5 332.9 245.5C320.3 245.5 311.6 236.5 311.6 224.4ZM333.2 238.3C340.3 238.3 347.3 232.5 347.3 223.6C347.3 215.8 341.8 209.1 333.4 209.1C325.4 209.1 319.4 215.2 319.4 223.8C319.4 232.6 325.4 238.3 333.2 238.3Z" fill="#6E549E"/>
<path d="M360.8 214.7H367.7V217.7C370.1 215.5 373.6 214.1 377.6 214.1C386.4 214.1 392.7 220 392.7 229.4C392.7 239.1 385.9 245.5 377.1 245.5C373 245.5 370.1 244.3 367.7 242.4V256.9H360.8V214.7ZM376.4 238.7C381.6 238.7 385.1 235 385.1 229.8C385.1 224.3 381.7 220.8 376.6 220.8C371.4 220.8 367.9 224.6 367.9 229.9C367.9 235.1 371.4 238.7 376.4 238.7Z" fill="#6E549E"/>
<path d="M398.399 202.7H405.299V244.9H398.399V202.7Z" fill="#6E549E"/>
<path d="M411.1 229.9C411.1 221 417.5 214.1 426.5 214.1C435.4 214.1 441 220.3 441 228.7C441 229.9 440.9 231 440.8 231.6H418.5C418.7 233.4 419.4 235 420.5 236.3C422 238.1 424.2 239.2 426.9 239.2C430.4 239.2 433.3 237.6 435 234.8L440.1 237.9C437.6 242.8 432.8 245.6 426.2 245.6C417.6 245.5 411.1 239.5 411.1 229.9ZM433.5 226.3C433.3 225.3 433 224.5 432.6 223.8C431.3 221.7 429.1 220.4 426.2 220.4C422.3 220.4 419.7 222.9 418.9 226.3H433.5Z" fill="#6E549E"/>
<path d="M442.3 214.7H450.6L459.8 232.2L468.9 214.7H476.9L459.8 245.5H459L442.3 214.7Z" fill="#6E549E"/>
<path d="M491.8 239.2L496.6 235.2C498.5 237.7 500.6 239.1 503 239.1C505 239.1 506.2 238.1 506.2 236.6C506.2 235 504.9 234.1 500.9 232.4C495.3 230 492.7 227.2 492.7 223C492.7 218 496.9 214 503 214C508 214 511.5 216.6 513.3 219.5L508.9 223.5C507.4 221.5 505.2 220.2 503.1 220.2C501.2 220.2 499.9 221.2 499.9 222.5C499.9 223.9 501.2 224.9 505.7 226.7C511.3 228.9 513.7 232 513.7 236.1C513.7 241.8 509 245.4 503.4 245.4C498 245.5 493.9 242.8 491.8 239.2Z" fill="#6E549E"/>
<path d="M518.3 235.4C518.3 229.2 523.1 224.9 528.6 224.9C531.2 224.9 532.9 225.5 534.5 226.7V225C534.5 222.4 532.6 220.6 529.6 220.6C526.7 220.6 524.7 222.3 523.6 224.1L518.7 220.5C521 216.7 524.6 214.1 530.6 214.1C537.3 214.1 541.3 218 541.3 224.3V228.3V244.9H534.7V242.6C533.4 244.3 531.2 245.5 528.1 245.5C523.1 245.5 518.3 242.1 518.3 235.4ZM529.7 239.4C532.4 239.4 534.1 237.5 534.1 235.1C534.1 232.7 532.5 230.8 529.8 230.8C527.1 230.8 525.4 232.8 525.4 235.1C525.4 237.5 527 239.4 529.7 239.4Z" fill="#6E549E"/>
<path d="M548.199 214.7H554.999V217.5C556.799 215.5 559.999 214.1 563.499 214.1C567.899 214.1 570.699 215.4 572.599 218.4C574.899 215.8 577.899 214.1 582.699 214.1C589.699 214.1 593.699 218.3 593.699 226.4V232.6V244.8H586.799V232.9V227.4C586.799 223.3 584.799 220.7 580.899 220.7C576.999 220.7 574.399 223.7 574.399 228.7V244.7H567.499V232.6V227.3C567.499 223.2 565.499 220.6 561.599 220.6C557.599 220.6 555.099 223.8 555.099 229.2V244.6H548.199V214.7Z" fill="#6E549E"/>
<path d="M600.6 214.7H607.4V217.5C609.2 215.5 612.4 214.1 615.9 214.1C620.3 214.1 623.1 215.4 625 218.4C627.3 215.8 630.3 214.1 635.1 214.1C642.1 214.1 646.1 218.3 646.1 226.4V232.6V244.8H639.2V232.9V227.4C639.2 223.3 637.2 220.7 633.3 220.7C629.4 220.7 626.8 223.7 626.8 228.7V244.7H619.9V232.6V227.3C619.9 223.2 617.9 220.6 614 220.6C610 220.6 607.5 223.8 607.5 229.2V244.6H600.6V214.7Z" fill="#6E549E"/>
<path d="M651.199 229.9C651.199 221 657.599 214.1 666.599 214.1C675.499 214.1 681.099 220.3 681.099 228.7C681.099 229.9 680.999 231 680.899 231.6H658.599C658.799 233.4 659.499 235 660.599 236.3C662.099 238.1 664.299 239.2 666.999 239.2C670.499 239.2 673.399 237.6 675.099 234.8L680.199 237.9C677.699 242.8 672.899 245.6 666.299 245.6C657.599 245.5 651.199 239.5 651.199 229.9ZM673.499 226.3C673.299 225.3 672.999 224.5 672.599 223.8C671.299 221.7 669.099 220.4 666.199 220.4C662.299 220.4 659.699 222.9 658.899 226.3H673.499Z" fill="#6E549E"/>
<path d="M686.899 214.7H693.699V217.5C695.799 215.5 698.699 214.1 702.599 214.1C709.699 214.1 714.099 218.3 714.099 226.4V233V244.9H707.199V232.6V227.7C707.199 223.4 704.899 220.8 700.899 220.8C696.899 220.8 693.799 224.1 693.799 229.5V244.9H686.899V214.7Z" fill="#6E549E"/>
</g>
<defs>
<linearGradient id="paint0_linear" x1="86.3219" y1="240.177" x2="250.822" y2="-61.3226" gradientUnits="userSpaceOnUse">
<stop stop-color="#624796"/>
<stop offset="1" stop-color="#805FA4"/>
</linearGradient>
<linearGradient id="paint1_linear" x1="94.6897" y1="117.179" x2="117.692" y2="195.186" gradientUnits="userSpaceOnUse">
<stop stop-color="#3C2C84" stop-opacity="0"/>
<stop offset="0.4793" stop-color="#3C2C84"/>
<stop offset="1" stop-color="#3C2C84" stop-opacity="0"/>
</linearGradient>
<linearGradient id="paint2_linear" x1="57.0422" y1="180.578" x2="142.167" y2="-1.55038" gradientUnits="userSpaceOnUse">
<stop stop-color="#624796"/>
<stop offset="1" stop-color="#805FA4"/>
</linearGradient>
<linearGradient id="paint3_linear" x1="114.684" y1="40.7486" x2="171.532" y2="88.4503" gradientUnits="userSpaceOnUse">
<stop stop-color="#3C2C84" stop-opacity="0"/>
<stop offset="0.5502" stop-color="#3C2C84"/>
<stop offset="1" stop-color="#3C2C84" stop-opacity="0"/>
</linearGradient>
<linearGradient id="paint4_linear" x1="86.7643" y1="240.419" x2="251.264" y2="-61.081" gradientUnits="userSpaceOnUse">
<stop stop-color="#624796"/>
<stop offset="1" stop-color="#805FA4"/>
</linearGradient>
<clipPath id="clip0">
<rect width="1142.8" height="256.9" fill="white"/>
</clipPath>
</defs>
</svg>
